<?xml version="1.0" encoding="UTF-8" standalone="no"?>
<svg width="24px" height="19px" viewBox="0 0 24 19" version="1.1" xmlns="http://www.w3.org/2000/svg" xmlns:xlink="http://www.w3.org/1999/xlink">
    <!-- Generator: Sketch 3.8.3 (29802) - http://www.bohemiancoding.com/sketch -->
    <title>icon-up-3</title>
    <desc>Created with Sketch.</desc>
    <defs></defs>
    <g id="Page-1" stroke="none" stroke-width="1" fill="none" fill-rule="evenodd">
        <g id="icon-up-3" transform="translate(0.000000, -1.000000)" fill="#7ED321">
            <g id="path-2">
                <g id="Page-1">
                    <g id="icon-up-3">
                        <path d="M22,4.999 L22,19.999 L18,19.999 L18,4.999 L16,4.999 L20,0.999 L24,4.999 L22,4.999 L22,4.999 L22,4.999 Z M14,7.999 L14,19.999 L10,19.999 L10,7.999 L8,7.999 L12,3.999 L16,7.999 L14,7.999 L14,7.999 L14,7.999 Z M6,11.998 L6,19.999 L2,19.999 L2,11.998 L0,11.998 L4,7.999 L8,11.998 L6,11.998 L6,11.998 L6,11.998 Z" id="path-2"></path>
                    </g>
                </g>
            </g>
        </g>
    </g>
</svg>