<?xml version="1.0" encoding="UTF-8" standalone="no"?>
<svg width="305px" height="309px" viewBox="0 0 305 309" version="1.1" xmlns="http://www.w3.org/2000/svg" xmlns:xlink="http://www.w3.org/1999/xlink">
    <!-- Generator: Sketch 3.8.3 (29802) - http://www.bohemiancoding.com/sketch -->
    <title>Slice 1</title>
    <desc>Created with Sketch.</desc>
    <defs></defs>
    <g id="Page-1" stroke="none" stroke-width="1" fill="none" fill-rule="evenodd">
        <g id="Group" fill="#FFFFFF">
            <path d="M146.5,205.9 L170.6,188.1 C176.2,186.3 183.6,181.6 199.7,173.1 C196.6,178.3 196.1,179 196.1,179 L204.2,178.7 C195.8,186.5 212.5,180.2 212.5,180.2 L207.1,185 C205.3,188.3 230.9,175.8 230.9,175.8 L217.3,187.2 L245.3,172.6 C235.1,180.1 235,187.3 235,187.3 L263.8,167.2 C247,179.9 249,187.8 249,187.8 L270.7,166.2 C258.1,180 267.4,183.4 267.4,183.4 L282.7,162 C276.5,172.4 282,180.1 282,180.1 L293.6,153.7 L295.9,159.1 C297.1,165.8 300,167.6 300,167.6 C298.7,165.8 304.5,150.1 304.5,150.1 C306.4,134.1 294.4,134.3 294.4,134.3 C278.1,135.3 267.8,126.7 267.8,126.7 L267.7,126.7 L281.2,118.4 C281.2,118.4 289.9,113.4 291.1,112.7 C292.9,111.6 298.8,108.8 301.8,119 L299.3,107.2 C299.3,107.2 294.9,98.1 286.1,100.4 C286.1,100.4 276.7,93.1 262.9,96.5 L228,105.4 L228.6,105 C228.6,105 206.4,112 187.9,92.9 C183.8,88.7 134.6,68.9 134.6,68.9 C105.8,59.9 95.7,29.4 95.7,29.4 C95.7,29.4 90.2,40.1 95.1,47.4 C98.4,52.3 100,58.8 100,58.8 C100,58.8 80.7,51 62.2,35.1 C53.8,27.7 45.4,22.2 29.9,0 C29.9,0 29.9,21.6 64.5,56.3 C64.5,56.3 37.5,55.7 1,15.6 C1,15.6 1,36.6 44.1,68.9 L1,52.1 C1,52.1 -1.1,59.9 43.5,86.2 L14.1,84.4 C14.1,84.4 17.1,92.8 46.2,99.1 L29.9,103.6 C29.9,103.6 49.9,116.3 63.3,109.6 L48.3,120.4 C48.3,120.4 54.3,131.2 69.3,133.6 C69.3,133.6 91.5,154.7 140,154.7 C145.6,154.7 157.4,150.8 164.6,148.2 L170.3,147.5 L135.6,165.6 L157,164.5 L137.9,174.6 L123.5,183.8 L109.1,192 L72.2,221.3 L150.3,195.5 L152.7,196.8 L142.4,206.5 L137.5,208 C135.4,208.6 134,210.7 133.9,213.1 C132.7,213.3 131.3,214 130.1,215 L124.8,219.3 C122.9,218.4 120.8,218.5 119.3,219.7 L113.7,224.2 C112.6,225.1 112,226.5 112,228 C111.7,228.1 111.3,228.2 111,228.3 L103.5,231.2 C101.2,232.1 99.6,233.6 99.2,235 C98.6,235.3 97.9,235.7 97.3,236.2 L92,240.5 C90.1,239.6 88,239.7 86.5,240.9 L80.9,245.4 C79.8,246.3 79.2,247.7 79.2,249.2 C78.9,249.3 78.5,249.4 78.2,249.5 L70.7,252.4 C67.7,253.6 65.8,255.8 66.4,257.4 L66.5,257.7 C61.2,252.4 53.8,249.2 45.7,249.2 C29.4,249.2 16.1,262.4 16.1,278.8 C16.1,295.1 29.3,308.4 45.7,308.4 C62,308.4 75.3,295.2 75.3,278.8 C75.3,271.5 72.6,264.8 68.2,259.6 C69.5,260 71.4,259.9 73.3,259.2 L80.8,256.3 C81.4,256.1 81.9,255.8 82.4,255.5 C84.5,257.6 87.6,258 89.7,256.3 L95.3,251.8 C96.9,250.5 97.4,248.2 96.7,246 L101.9,241.8 C103.2,240.8 104.1,239.5 104.6,238.4 C105.1,238.3 105.7,238.1 106.2,237.9 L113.7,235 C114.3,234.8 114.8,234.5 115.3,234.2 C117.4,236.3 120.5,236.7 122.6,235 L128.2,230.5 C129.8,229.2 130.3,226.9 129.6,224.7 L134.8,220.5 C135.3,220.1 135.7,219.7 136,219.3 C137.3,221 139.4,221.9 141.4,221.4 L148.4,219.5 C151.2,218.7 152.7,215.5 151.8,212.3 L151.3,210.5 C149.9,206.7 146.5,205.9 146.5,205.9 L146.5,205.9 Z M124.1,222.5 C124.4,222.7 124.7,223 124.9,223.3 L125.7,224.3 C125.9,224.6 126.1,224.9 126.3,225.3 C125.2,225.8 124.3,225.9 123.9,225.4 L123.6,225 C123.1,224.4 123.4,223.5 124.1,222.5 L124.1,222.5 Z M91.2,243.8 C91.5,244 91.8,244.3 92,244.6 L92.8,245.6 C93,245.9 93.2,246.2 93.4,246.6 C92.3,247.1 91.4,247.2 91,246.7 L90.7,246.3 C90.2,245.6 90.4,244.8 91.2,243.8 L91.2,243.8 Z M79.3,255.4 L73.6,257.6 C71.3,258.5 69.2,258.5 68.9,257.6 L68.7,257.1 C68.3,256.2 69.9,254.8 72.1,253.9 L77.8,251.7 C78.3,251.5 78.8,251.4 79.2,251.3 C79.4,252.1 79.8,252.9 80.4,253.6 L81.1,254.5 C80.6,254.7 80,255.1 79.3,255.4 L79.3,255.4 Z M92.6,250.8 L88.9,253.8 C87.7,254.8 85.8,254.7 84.4,253.6 C84.9,252.8 85.1,252 84.9,251.4 L84.5,250.5 C84.2,249.6 83.2,249.2 81.9,249 C81.9,248.1 82.3,247.2 83.1,246.6 L86.8,243.6 C87.5,243 88.4,242.8 89.3,243 C88,244.7 87.5,246.5 88.3,247.5 L88.9,248.3 C89.7,249.4 91.7,249.2 93.7,248.2 C93.8,249.1 93.4,250.2 92.6,250.8 L92.6,250.8 Z M100.2,241.3 L96,244.7 C95.8,244.4 95.6,244.1 95.4,243.8 L94.2,242.3 C94,242 93.7,241.7 93.4,241.5 L97.6,238.1 C98.2,237.6 98.8,237.2 99.3,237 L99.4,237.2 C99.8,238.1 100.9,238.6 102.4,238.7 C102,239.5 101.2,240.5 100.2,241.3 L100.2,241.3 Z M112.2,234.1 L106.5,236.3 C105.8,236.6 105.2,236.7 104.6,236.8 C104.6,236.4 104.5,236.1 104.2,235.8 L103.6,235 C103.3,234.6 102.7,234.4 102.1,234.3 C102.7,233.6 103.7,233 105,232.5 L110.7,230.3 C111.2,230.1 111.7,230 112.1,229.9 C112.3,230.7 112.7,231.5 113.3,232.2 L114,233.1 C113.6,233.5 112.9,233.8 112.2,234.1 L112.2,234.1 Z M125.5,229.5 L121.8,232.5 C120.6,233.5 118.7,233.4 117.3,232.3 C117.8,231.5 118,230.7 117.8,230.1 L117.4,229.2 C117.1,228.3 116.1,227.9 114.8,227.7 C114.8,226.8 115.2,225.9 116,225.3 L119.7,222.3 C120.4,221.7 121.3,221.5 122.2,221.7 C120.9,223.4 120.4,225.2 121.2,226.2 L121.8,227 C122.6,228 124.6,227.9 126.6,226.9 C126.7,227.9 126.3,228.9 125.5,229.5 L125.5,229.5 Z M133.1,220 L128.9,223.4 C128.7,223.1 128.5,222.8 128.3,222.5 L127.1,221 C126.9,220.7 126.6,220.4 126.3,220.2 L130.5,216.8 C131.8,215.7 133.2,215.1 134.1,215.1 L134.1,215.1 L134.6,216.9 C134.7,217.2 134.8,217.6 135,217.9 C134.5,218.7 133.9,219.4 133.1,220 L133.1,220 Z M149,211.3 L149.4,212.7 C150.1,215.1 148.9,217.5 146.9,218.1 L141.7,219.5 C140,220 138.2,219 137.3,217.4 C137.8,216.3 137.8,215.2 137.3,214.6 L136.7,213.8 C136.6,213.7 136.4,213.6 136.3,213.4 C136.3,211.5 137.3,209.8 139,209.4 L144.2,208 C146.1,207.4 148.3,208.9 149,211.3 L149,211.3 Z M259.1,103.5 L278.1,100.5 L272.2,107.2 C272.1,107.2 270.1,101.7 259.1,103.5 L259.1,103.5 Z" id="Shape"></path>
        </g>
    </g>
</svg>