<?xml version="1.0" encoding="UTF-8" standalone="no"?>
<svg width="264px" height="45px" viewBox="0 0 264 45" version="1.1" xmlns="http://www.w3.org/2000/svg" xmlns:xlink="http://www.w3.org/1999/xlink">
    <!-- Generator: Sketch 3.8.3 (29802) - http://www.bohemiancoding.com/sketch -->
    <title>logo-1will</title>
    <desc>Created with Sketch.</desc>
    <defs></defs>
    <g id="Page-2" stroke="none" stroke-width="1" fill="none" fill-rule="evenodd">
        <g id="logo-1will" fill="#000000">
            <g id="Group">
                <path d="M222.7,0.2 L222.7,36.9 L261,36.9 L263.2,42.4 L256.6,44.6 L219.5,44.6 C219,44.6 218.3,44.3 217.4,43.8 C216.4,43.3 215.5,42.6 214.5,41.9 C213.5,41.2 212.6,40.4 211.9,39.7 C211.1,39 210.8,38.4 210.8,38 L210.8,0.2 L222.7,0.2 L222.7,0.2 Z" id="Shape"></path>
                <path d="M12.6,12.4 L0.1,20.4 L0.1,11.2 L15,0.6 L18.1,0.6 L19.5,0.6 C19.8,0.6 20.2,0.6 20.8,0.5 C21.3,0.5 22.4,0.4 23.9,0.3 L23.9,44.5 L12.7,37.7 L12.6,12.4 L12.6,12.4 Z" id="Shape"></path>
                <polygon id="Shape" points="142.5 0.3 142.5 44.5 131.3 37.7 131.3 12.3 131.3 0.3"></polygon>
                <path d="M120.4,0.5 C119.6,0.4 119.1,0.4 118.8,0.4 C116.5,0.4 114.5,0.9 112.8,1.9 C111.1,2.9 109.6,4.2 108.2,5.7 C106.8,7.3 105.6,9.1 104.5,11.1 C103.4,13.1 102.3,15.1 101.2,17 C100.1,18.9 98.9,20.8 97.7,22.5 C96.5,24.3 95.1,25.7 93.6,26.8 C91.2,25.3 89.3,23.6 88,21.8 C86.7,20 85.7,18.2 84.9,16.3 C84.1,14.5 83.5,12.7 82.9,10.9 C82.3,9.2 81.5,7.6 80.5,6.3 C79.6,5.1 78.3,4.1 76.8,3.3 L76.8,3.1 C76.7,3.1 76.7,3.2 76.6,3.2 C76.5,3.2 76.5,3.1 76.4,3.1 L76.4,3.3 C74.8,4.1 73.6,5.1 72.7,6.3 C71.7,7.6 70.9,9.2 70.3,10.9 C69.7,12.6 69,14.4 68.3,16.3 C67.5,18.1 66.5,20 65.2,21.8 C63.9,23.6 62,25.3 59.6,26.8 C58.1,25.7 56.7,24.2 55.5,22.5 C54.3,20.8 53.1,18.9 52,17 C50.9,15.1 49.8,13.1 48.7,11.1 C47.6,9.1 46.4,7.3 45,5.7 C43.7,4.1 42.1,2.8 40.4,1.9 C38.7,0.9 36.7,0.4 34.4,0.4 C34.1,0.4 33.6,0.4 32.8,0.5 C32,0.6 31.4,0.6 31.1,0.6 C31.5,1.5 32.3,2.7 33.3,4.4 C34.3,6.1 35.5,8 36.8,10.2 C38.1,12.4 39.5,14.6 40.9,17 C42.3,19.4 43.7,21.7 45,23.8 C46.3,25.9 47.4,27.9 48.5,29.6 C49.5,31.3 50.3,32.6 50.8,33.4 C51.4,34.2 52,35.3 52.8,36.6 C53.6,37.9 54.3,39.1 55.1,40.3 C55.9,41.5 56.7,42.5 57.6,43.3 C58.5,44.1 59.3,44.6 60.2,44.6 C61.9,44.6 63.3,44.3 64.3,43.6 C65.3,42.9 66.2,42.1 66.9,41 C67.6,40 68.2,38.8 68.6,37.5 C69.1,36.2 69.6,34.9 70.1,33.5 C70.6,32.2 71.2,30.9 72,29.7 C72.7,28.6 74.8,26.5 76.1,25.7 C77.4,26.5 80.3,28.6 81,29.7 C81.8,30.9 82.4,32.1 82.9,33.5 C83.4,34.8 83.9,36.1 84.4,37.5 C84.9,38.8 85.5,40 86.1,41 C86.8,42 87.6,42.9 88.7,43.6 C89.7,44.3 91.1,44.6 92.8,44.6 C93.6,44.6 94.5,44.2 95.4,43.3 C96.3,42.5 97.1,41.4 97.9,40.3 C98.7,39.1 99.5,37.9 100.2,36.6 C101,35.3 101.6,34.3 102.2,33.4 C102.7,32.6 103.5,31.4 104.5,29.6 C105.5,27.9 106.7,26 108,23.8 C109.3,21.7 110.7,19.4 112.1,17 C113.5,14.6 114.9,12.3 116.2,10.2 C117.5,8 118.7,6.1 119.7,4.4 C120.7,2.7 121.5,1.4 121.9,0.6 C121.8,0.6 121.2,0.6 120.4,0.5 L120.4,0.5 Z" id="Shape"></path>
                <path d="M166,0.2 L166,36.9 L204.3,36.9 L206.5,42.4 L199.9,44.6 L162.8,44.6 C162.3,44.6 161.6,44.3 160.7,43.8 C159.7,43.3 158.8,42.6 157.8,41.9 C156.8,41.2 155.9,40.4 155.2,39.7 C154.4,39 154.1,38.4 154.1,38 L154.1,0.2 L166,0.2 L166,0.2 Z" id="Shape"></path>
            </g>
        </g>
    </g>
</svg>